<svg xmlns="http://www.w3.org/2000/svg" viewBox="0 0 800 450"><defs><linearGradient id="a" x1="0%" y1="0%" x2="0%" y2="100%"><stop offset="0%" stop-color="#60a5fa" stop-opacity=".2"/><stop offset="100%" stop-color="#3b82f6" stop-opacity=".05"/></linearGradient><clipPath id="b"><path d="m400 60 120 50v150c0 80-120 130-120 130s-120-50-120-130V110Z"/></clipPath></defs><path fill="#0f172a" d="M0 0h800v450H0z"/><path d="M0 50 450 0M0 100 550 0M0 150 650 0M0 200 750 0M0 250 800 0M50 450 800 50M150 450l650-300M250 450l550-200M350 450l450-100" stroke="#1e293b" stroke-width=".5" opacity=".4"/><path d="m400 60 120 50v150c0 80-120 130-120 130s-120-50-120-130V110Z" fill="url(#a)" stroke="#60a5fa" stroke-width="2"/><g clip-path="url(#b)" stroke="#334155" stroke-width=".5" opacity=".5"><path d="M280 150h240m-240 50h240m-240 50h240m-240 50h240m-240 50h240M340 60v330m60-330v330m60-330v330"/></g><circle cx="400" cy="220" r="40" fill="none" stroke="#3b82f6" opacity=".6"/><circle cx="400" cy="220" r="55" fill="none" stroke="#3b82f6" stroke-width=".7" opacity=".4"/><circle cx="400" cy="220" r="70" fill="none" stroke="#3b82f6" stroke-width=".5" opacity=".25"/><circle cx="400" cy="220" r="8" fill="#60a5fa" opacity=".9"/><circle cx="400" cy="220" r="4" fill="#f1f5f9"/><path d="m408 215 37-25m-38 38 33 32m-47-45-38-30m37 45-32 35m45-52 25-43m-35 62-25 43" stroke="#60a5fa" opacity=".4"/><g fill="#60a5fa" opacity=".12" font-family="'SF Mono','Fira Code','Consolas',monospace" font-size="10"><text x="100" y="80">0x4A</text><text x="630" y="120">0xFF</text><text x="80" y="350">0x2E</text><text x="660" y="380">0xA1</text><text x="140" y="220">0x7B</text><text x="620" y="250">0x3D</text></g><path d="M20 40V20h20m720 0h20v20m0 370v20h-20m-720 0H20v-20" stroke="#334155" stroke-width="1.5" fill="none"/></svg>
