<svg viewBox="0 0 800 400" xmlns="http://www.w3.org/2000/svg"><path fill="#0f172a" d="M0 0h800v400H0z"/><rect x="50" y="50" width="700" height="300" rx="8" fill="#1e293b" stroke="#334155" stroke-width="2"/><circle cx="70" cy="70" r="6" fill="#ef4444"/><circle cx="90" cy="70" r="6" fill="#f59e0b"/><circle cx="110" cy="70" r="6" fill="#22c55e"/><rect x="100" y="100" width="200" height="8" rx="4" fill="#334155"/><rect x="100" y="120" width="350" height="8" rx="4" fill="#334155"/><rect x="100" y="140" width="280" height="8" rx="4" fill="#334155"/><rect x="130" y="170" width="180" height="8" rx="4" fill="#60a5fa"/><rect x="130" y="190" width="420" height="8" rx="4" fill="#60a5fa"/><rect x="130" y="210" width="320" height="8" rx="4" fill="#60a5fa"/><rect x="160" y="240" width="220" height="8" rx="4" fill="#334155"/><rect x="160" y="260" width="380" height="8" rx="4" fill="#334155"/><rect x="160" y="280" width="250" height="8" rx="4" fill="#334155"/><path fill="#60a5fa" d="M530 210h3v8h-3z"/></svg>
